<svg xmlns="http://www.w3.org/2000/svg" width="900" height="360" role="img"><title>Gate 4 sensitivity dry-run figure</title><rect width="100%" height="100%" fill="white"/><text x="20" y="30" font-family="sans-serif" font-size="18">Gate 4 sensitivity results</text><line x1="70" y1="300" x2="870" y2="300" stroke="black"/><line x1="70" y1="60" x2="70" y2="300" stroke="black"/><rect x="80" y="287" width="43" height="13" fill="#3366cc"><title>latency: 0.015</title></rect><rect x="125" y="273" width="43" height="27" fill="#3366cc"><title>jitter: 0.0309</title></rect><rect x="170" y="288" width="43" height="12" fill="#3366cc"><title>packet_loss: 0.0144</title></rect><rect x="215" y="249" width="43" height="51" fill="#3366cc"><title>capacity: 0.0579</title></rect><rect x="260" y="237" width="43" height="63" fill="#3366cc"><title>energy: 0.0707</title></rect><rect x="305" y="238" width="43" height="62" fill="#3366cc"><title>local_edge: 0.0698</title></rect><rect x="350" y="223" width="43" height="77" fill="#3366cc"><title>outage_duration: 0.0873</title></rect><rect x="395" y="226" width="43" height="74" fill="#3366cc"><title>recovery_delay: 0.0837</title></rect><rect x="440" y="253" width="43" height="47" fill="#3366cc"><title>ntn_latency: 0.0537</title></rect><rect x="485" y="252" width="43" height="48" fill="#3366cc"><title>ntn_capacity: 0.0546</title></rect><rect x="530" y="180" width="43" height="120" fill="#3366cc"><title>ntn_availability: 0.1353</title></rect><rect x="575" y="231" width="43" height="69" fill="#3366cc"><title>handover_delay: 0.0776</title></rect><rect x="620" y="268" width="43" height="32" fill="#3366cc"><title>mobility: 0.0364</title></rect><rect x="665" y="165" width="43" height="135" fill="#3366cc"><title>blockage: 0.1512</title></rect><rect x="710" y="209" width="43" height="91" fill="#3366cc"><title>service_class: 0.102</title></rect><rect x="755" y="60" width="43" height="240" fill="#3366cc"><title>fairness_threshold: 0.2688</title></rect><rect x="800" y="147" width="43" height="153" fill="#3366cc"><title>continuity_threshold: 0.1723</title></rect><text x="20" y="340" font-family="sans-serif" font-size="12">Generated from raw CSV only; dry-run values are not physical measurements.</text></svg>
